<?xml version="1.0" encoding="UTF-8" standalone="no"?>
<svg
   xmlns:dc="http://purl.org/dc/elements/1.1/"
   xmlns:cc="http://creativecommons.org/ns#"
   xmlns:rdf="http://www.w3.org/1999/02/22-rdf-syntax-ns#"
   xmlns:svg="http://www.w3.org/2000/svg"
   xmlns="http://www.w3.org/2000/svg"
   xmlns:sodipodi="http://sodipodi.sourceforge.net/DTD/sodipodi-0.dtd"
   xmlns:inkscape="http://www.inkscape.org/namespaces/inkscape"
   inkscape:version="1.0beta2 (2b71d25, 2019-12-03)"
   height="267"
   width="267.10001"
   sodipodi:docname="icon3.svg"
   xml:space="preserve"
   viewBox="0 0 267.1 267"
   y="0px"
   x="0px"
   id="Layer_1"
   version="1.1"><metadata
   id="metadata201"><rdf:RDF><cc:Work
       rdf:about=""><dc:format>image/svg+xml</dc:format><dc:type
         rdf:resource="http://purl.org/dc/dcmitype/StillImage" /><dc:title></dc:title></cc:Work></rdf:RDF></metadata><defs
   id="defs199" /><sodipodi:namedview
   inkscape:current-layer="Layer_1"
   inkscape:window-maximized="0"
   inkscape:window-y="44"
   inkscape:window-x="0"
   inkscape:cy="254"
   inkscape:cx="-98.972056"
   inkscape:zoom="1.0074671"
   showgrid="false"
   id="namedview197"
   inkscape:window-height="1077"
   inkscape:window-width="1809"
   inkscape:pageshadow="2"
   inkscape:pageopacity="0"
   guidetolerance="10"
   gridtolerance="10"
   objecttolerance="10"
   borderopacity="1"
   inkscape:document-rotation="0"
   bordercolor="#666666"
   pagecolor="#ffffff" />

<g
   transform="matrix(1.5011614,0,0,1.5011614,-32.939673,63.434798)"
   id="g54"><title
     id="title50">Layer 1</title><text
     xml:space="preserve"
     text-anchor="start"
     font-family="Roboto"
     font-size="24"
     id="svg_1"
     y="253"
     x="156"
     stroke-width="0"
     stroke="#000"
     fill="#000000" /><g
     style="font-size:70px;font-family:Roboto;text-anchor:start;fill:#ffff00;stroke:#000000;stroke-width:0"
     id="svg_2"
     transform="matrix(0.998407,0,0,0.880204,-313.241,-9.58556)"
     aria-label="P1IB"><path
       inkscape:connector-curvature="0"
       id="path64"
       style="font-size:70px;font-family:Roboto;text-anchor:start;fill:#ffff00;stroke:#000000;stroke-width:0"
       d="m 380.12695,54.487305 q 0,3.383789 -1.19629,6.289062 -1.16211,2.871094 -3.28125,4.990235 -2.63183,2.631835 -6.2207,3.964843 -3.58887,1.298828 -9.05762,1.298828 h -6.76757 V 90 h -6.76758 V 39.106445 h 13.80859 q 4.58008,0 7.75879,0.786133 3.17871,0.751953 5.63965,2.392578 2.90527,1.948242 4.47754,4.853516 1.60644,2.905273 1.60644,7.348633 z m -7.04101,0.170898 q 0,-2.631836 -0.92285,-4.580078 -0.92286,-1.948242 -2.80274,-3.178711 -1.64062,-1.05957 -3.75976,-1.503906 -2.08497,-0.478516 -5.29786,-0.478516 h -6.69921 v 20.336914 h 5.708 q 4.10157,0 6.66504,-0.717773 2.56348,-0.751953 4.16992,-2.358399 1.60645,-1.640625 2.25586,-3.452148 0.6836,-1.811524 0.6836,-4.067383 z" /><path
       inkscape:connector-curvature="0"
       id="path66"
       style="font-size:70px;font-family:Roboto;text-anchor:start;fill:#ffff00;stroke:#000000;stroke-width:0"
       d="m 419.29687,90 h -27.54882 v -5.195313 h 10.5957 V 50.693359 h -10.5957 v -4.648437 q 2.15332,0 4.61425,-0.341797 2.46094,-0.375977 3.72559,-1.05957 1.57227,-0.854493 2.46094,-2.153321 0.92285,-1.333007 1.05957,-3.554687 h 5.29785 v 45.86914 h 10.39062 z" /><path
       inkscape:connector-curvature="0"
       id="path68"
       style="font-size:70px;font-family:Roboto;text-anchor:start;fill:#ffff00;stroke:#000000;stroke-width:0"
       d="m 451.59668,90 h -20.09766 v -5.195313 h 6.66504 V 44.301758 h -6.66504 v -5.195313 h 20.09766 v 5.195313 h -6.66504 v 40.502929 h 6.66504 z" /><path
       inkscape:connector-curvature="0"
       id="path70"
       style="font-size:70px;font-family:Roboto;text-anchor:start;fill:#ffff00;stroke:#000000;stroke-width:0"
       d="m 501.56738,74.345703 q 0,3.793945 -1.43554,6.699219 -1.43555,2.905273 -3.86231,4.785156 -2.87109,2.255859 -6.32324,3.212891 Q 486.52832,90 481.23047,90 H 463.18359 V 39.106445 h 15.07325 q 5.57128,0 8.33984,0.410157 2.76855,0.410156 5.29785,1.708984 2.80274,1.469726 4.06738,3.793945 1.26465,2.290039 1.26465,5.50293 0,3.623047 -1.8457,6.186523 -1.8457,2.529297 -4.92188,4.067383 v 0.273438 q 5.16114,1.05957 8.13477,4.545898 2.97363,3.452149 2.97363,8.75 z m -11.38183,-22.93457 q 0,-1.845703 -0.61524,-3.110352 -0.61523,-1.264648 -1.98242,-2.050781 -1.60644,-0.922852 -3.89648,-1.12793 -2.29004,-0.239258 -5.67383,-0.239258 h -8.06641 v 14.697266 h 8.75 q 3.17871,0 5.0586,-0.307617 1.87988,-0.341797 3.48632,-1.367188 1.60645,-1.02539 2.25586,-2.631836 0.6836,-1.640625 0.6836,-3.862304 z m 4.34082,23.208008 q 0,-3.076172 -0.92285,-4.887696 -0.92286,-1.811523 -3.34961,-3.076172 -1.64063,-0.854492 -3.99903,-1.09375 -2.32422,-0.273437 -5.67383,-0.273437 h -10.62988 v 18.935547 h 8.95508 q 4.44336,0 7.28027,-0.444336 2.83692,-0.478516 4.64844,-1.708985 1.91406,-1.333007 2.80274,-3.041992 0.88867,-1.708984 0.88867,-4.409179 z" /></g></g></svg>
